<mxfile host="app.diagrams.net" agent="Mozilla/5.0 (Windows NT 10.0; Win64; x64) AppleWebKit/537.36 (KHTML, like Gecko) Chrome/131.0.0.0 Safari/537.36" version="25.0.3">
  <diagram name="Page-1" id="qyJCnWaZC4eBzy3aBs3c">
    <mxGraphModel dx="1064" dy="1707" grid="1" gridSize="10" guides="1" tooltips="1" connect="1" arrows="1" fold="1" page="1" pageScale="1" pageWidth="827" pageHeight="1169" math="0" shadow="0">
      <root>
        <mxCell id="0" />
        <mxCell id="1" parent="0" />
        <mxCell id="0XSdBE7QbsKULIUNA40d-1" value="rk3588-evb4-lp4-v10-linux.dts" style="text;html=1;align=center;verticalAlign=middle;whiteSpace=wrap;rounded=0;" vertex="1" parent="1">
          <mxGeometry x="340" y="80" width="210" height="30" as="geometry" />
        </mxCell>
        <mxCell id="0XSdBE7QbsKULIUNA40d-2" style="edgeStyle=orthogonalEdgeStyle;rounded=0;orthogonalLoop=1;jettySize=auto;html=1;exitX=0.5;exitY=1;exitDx=0;exitDy=0;entryX=0.5;entryY=0;entryDx=0;entryDy=0;" edge="1" parent="1" source="0XSdBE7QbsKULIUNA40d-3" target="0XSdBE7QbsKULIUNA40d-1">
          <mxGeometry relative="1" as="geometry" />
        </mxCell>
        <UserObject label="rk3588-evb4-lp4.dtsi" id="0XSdBE7QbsKULIUNA40d-3">
          <mxCell style="text;whiteSpace=wrap;html=1;" vertex="1" parent="1">
            <mxGeometry x="280" y="10" width="120" height="30" as="geometry" />
          </mxCell>
        </UserObject>
        <mxCell id="0XSdBE7QbsKULIUNA40d-4" style="edgeStyle=orthogonalEdgeStyle;rounded=0;orthogonalLoop=1;jettySize=auto;html=1;exitX=0.5;exitY=1;exitDx=0;exitDy=0;entryX=0.5;entryY=0;entryDx=0;entryDy=0;" edge="1" parent="1" source="0XSdBE7QbsKULIUNA40d-5" target="0XSdBE7QbsKULIUNA40d-1">
          <mxGeometry relative="1" as="geometry" />
        </mxCell>
        <UserObject label="&lt;font color=&quot;#ff0000&quot;&gt;rk3588-linux.dtsi&lt;/font&gt;" id="0XSdBE7QbsKULIUNA40d-5">
          <mxCell style="text;whiteSpace=wrap;html=1;" vertex="1" parent="1">
            <mxGeometry x="510" y="10" width="100" height="30" as="geometry" />
          </mxCell>
        </UserObject>
        <mxCell id="0XSdBE7QbsKULIUNA40d-6" style="edgeStyle=orthogonalEdgeStyle;rounded=0;orthogonalLoop=1;jettySize=auto;html=1;exitX=0.5;exitY=1;exitDx=0;exitDy=0;entryX=0.5;entryY=0;entryDx=0;entryDy=0;" edge="1" parent="1" source="0XSdBE7QbsKULIUNA40d-7" target="0XSdBE7QbsKULIUNA40d-3">
          <mxGeometry relative="1" as="geometry" />
        </mxCell>
        <UserObject label="&lt;font color=&quot;#ff0000&quot;&gt;rk3588.dtsi&lt;/font&gt;" id="0XSdBE7QbsKULIUNA40d-7">
          <mxCell style="text;whiteSpace=wrap;html=1;" vertex="1" parent="1">
            <mxGeometry x="205" y="-60" width="70" height="30" as="geometry" />
          </mxCell>
        </UserObject>
        <mxCell id="0XSdBE7QbsKULIUNA40d-8" style="edgeStyle=orthogonalEdgeStyle;rounded=0;orthogonalLoop=1;jettySize=auto;html=1;exitX=0.5;exitY=1;exitDx=0;exitDy=0;entryX=0.5;entryY=0;entryDx=0;entryDy=0;" edge="1" parent="1" source="0XSdBE7QbsKULIUNA40d-9" target="0XSdBE7QbsKULIUNA40d-3">
          <mxGeometry relative="1" as="geometry" />
        </mxCell>
        <UserObject label="&lt;font color=&quot;#ff0000&quot;&gt;rk3588-evb.dtsi&lt;/font&gt;" id="0XSdBE7QbsKULIUNA40d-9">
          <mxCell style="text;whiteSpace=wrap;html=1;" vertex="1" parent="1">
            <mxGeometry x="295" y="-60" width="90" height="30" as="geometry" />
          </mxCell>
        </UserObject>
        <mxCell id="0XSdBE7QbsKULIUNA40d-10" style="edgeStyle=orthogonalEdgeStyle;rounded=0;orthogonalLoop=1;jettySize=auto;html=1;exitX=0.5;exitY=1;exitDx=0;exitDy=0;entryX=0.5;entryY=0;entryDx=0;entryDy=0;" edge="1" parent="1" source="0XSdBE7QbsKULIUNA40d-11" target="0XSdBE7QbsKULIUNA40d-3">
          <mxGeometry relative="1" as="geometry" />
        </mxCell>
        <UserObject label="rk3588-rk806-single.dtsi" id="0XSdBE7QbsKULIUNA40d-11">
          <mxCell style="text;whiteSpace=wrap;html=1;" vertex="1" parent="1">
            <mxGeometry x="385" y="-60" width="140" height="30" as="geometry" />
          </mxCell>
        </UserObject>
        <mxCell id="0XSdBE7QbsKULIUNA40d-12" style="edgeStyle=orthogonalEdgeStyle;rounded=0;orthogonalLoop=1;jettySize=auto;html=1;exitX=0.5;exitY=1;exitDx=0;exitDy=0;entryX=0.5;entryY=0;entryDx=0;entryDy=0;" edge="1" parent="1" source="0XSdBE7QbsKULIUNA40d-13" target="0XSdBE7QbsKULIUNA40d-7">
          <mxGeometry relative="1" as="geometry" />
        </mxCell>
        <UserObject label="&lt;font color=&quot;#ff0000&quot;&gt;rk3588s.dtsi&lt;/font&gt;" id="0XSdBE7QbsKULIUNA40d-13">
          <mxCell style="text;whiteSpace=wrap;html=1;" vertex="1" parent="1">
            <mxGeometry x="125" y="-130" width="80" height="30" as="geometry" />
          </mxCell>
        </UserObject>
        <mxCell id="0XSdBE7QbsKULIUNA40d-14" style="edgeStyle=orthogonalEdgeStyle;rounded=0;orthogonalLoop=1;jettySize=auto;html=1;exitX=0.5;exitY=1;exitDx=0;exitDy=0;entryX=0.5;entryY=0;entryDx=0;entryDy=0;" edge="1" parent="1" source="0XSdBE7QbsKULIUNA40d-15" target="0XSdBE7QbsKULIUNA40d-7">
          <mxGeometry relative="1" as="geometry" />
        </mxCell>
        <UserObject label="rk3588-vccio3-pinctrl.dtsi" id="0XSdBE7QbsKULIUNA40d-15">
          <mxCell style="text;whiteSpace=wrap;html=1;" vertex="1" parent="1">
            <mxGeometry x="245" y="-130" width="140" height="30" as="geometry" />
          </mxCell>
        </UserObject>
        <mxCell id="0XSdBE7QbsKULIUNA40d-16" style="edgeStyle=orthogonalEdgeStyle;rounded=0;orthogonalLoop=1;jettySize=auto;html=1;exitX=0.5;exitY=1;exitDx=0;exitDy=0;entryX=0.5;entryY=0;entryDx=0;entryDy=0;" edge="1" parent="1" source="0XSdBE7QbsKULIUNA40d-17" target="0XSdBE7QbsKULIUNA40d-15">
          <mxGeometry relative="1" as="geometry" />
        </mxCell>
        <UserObject label="rockchip-pinconf.dtsi" id="0XSdBE7QbsKULIUNA40d-17">
          <mxCell style="text;whiteSpace=wrap;html=1;" vertex="1" parent="1">
            <mxGeometry x="255" y="-180" width="120" height="30" as="geometry" />
          </mxCell>
        </UserObject>
        <mxCell id="0XSdBE7QbsKULIUNA40d-18" value="&lt;font style=&quot;font-size: 10px;&quot;&gt;rk3588某个linux evb设备树结构，红色文件内包含display相关节点：&lt;/font&gt;" style="text;html=1;align=center;verticalAlign=middle;whiteSpace=wrap;rounded=0;" vertex="1" parent="1">
          <mxGeometry x="110" y="-240" width="310" height="30" as="geometry" />
        </mxCell>
      </root>
    </mxGraphModel>
  </diagram>
</mxfile>
